<?xml version="1.0" encoding="utf-8"?>
<!-- Generator: Adobe Illustrator 14.0.0, SVG Export Plug-In . SVG Version: 6.00 Build 43363)  -->
<!DOCTYPE svg PUBLIC "-//W3C//DTD SVG 1.0//EN" "http://www.w3.org/TR/2001/REC-SVG-20010904/DTD/svg10.dtd">
<svg version="1.0" id="Layer_1" xmlns="http://www.w3.org/2000/svg" xmlns:xlink="http://www.w3.org/1999/xlink" x="0px" y="0px"
	 width="1080px" height="1080px" viewBox="0 0 1080 1080" enable-background="new 0 0 1080 1080" xml:space="preserve">
<g>
	<g>
		<path fill="#FAD2C3" d="M959.688,432.696c-7.114-21.556-15.839-42.384-26.05-62.329c-7.273-14.211-15.272-27.979-23.979-41.234
			c-3.893-5.929-7.91-11.75-12.068-17.466c-1.451-1.991-7.026-7.521-8.937-8.343c-3.168-1.372-6.619-2.062-10.07-1.93
			c-0.603,0.018-17.873,1.92-24.775,2.991c-13.432,2.097-24.298,4.592-34.562,7.309c-10.707,2.84-20.724,5.902-32.296,8.964
			c-11.893,3.159-26.21,7.698-38.81,11.91c-17.396,5.804-31.536,10.972-31.536,10.972s-44.383,11.609-140.672,62.833
			c-96.306,51.224-130.443,91.5-130.443,91.5c-47.125,57.719-25.942,89.467,9.23,106.199
			c35.171,16.732,121.903,32.438,121.903,32.438c111.985,16.396,182.666,40.632,182.666,40.632
			c56.011,21.855,76.84,43.375,84.007,58.39c7.167,15.034,27.996,45.755-8.53,98.341c-14.405,20.715-33.146,40.96-50.577,57.896
			c-26.792,26.032-50.506,44.216-50.506,44.216c-23.714,18.023-43.623,31.51-60.081,41.588
			c-45.888,28.102-65.001,29.765-65.001,29.765l-1.114,0.664c58.541-8.981,113.295-29.447,161.891-59.027
			c43.038-26.19,81.229-59.523,112.958-98.35c23.554-28.828,43.534-60.691,59.267-94.908c16.352-35.526,28.12-73.583,34.562-113.453
			c3.734-23.113,5.681-46.844,5.681-71.036C981.844,522.843,974.058,476.274,959.688,432.696z"/>
		<path fill="#FAD2C3" d="M373.915,652.88c-42.834-32.492-84.537-56.063-84.537-56.063l-31.067-19.114
			c-14.651-9.201-19.767-16.015-19.767-16.015c-37.871-32.756,12.954-69.265,12.954-69.265
			c21.148-21.148,74.716-51.852,74.716-51.852c77.097-40.969,136.469-44.702,136.469-44.702
			c-131.691-97.58-212.548-98.589-212.548-98.589s-20.324-3.602-42.224,0.3c-12.034,2.142-22.617,9.592-29.908,19.237
			c-10.219,13.511-18.652,29.386-26.846,44.207c-8.282,14.944-15.679,30.376-22.067,46.224
			c-13.167,32.589-22.334,66.778-26.661,101.677c-2.539,20.501-4.273,41.578-4.273,62.23c0,54.877,10.025,107.383,28.315,155.838
			c24.492,64.823,63.797,122.373,113.781,168.526c0,0,17.759,16.174,27.882,23.679c10.121,7.512,24.314,3.432,24.314,3.432
			c4.549-0.812,9.203-2.389,9.203-2.389c32.42-9.573,86.643-42.648,86.643-42.648c72-43.33,79.512-73.017,79.512-73.017
			c10.229-33.43-13.988-71.991-13.988-71.991C437.102,705.075,405.203,676.61,373.915,652.88z"/>
	</g>
	<g>
		<path fill="#DC1E46" d="M539.955,193.453c33.536,0,60.735-27.182,60.735-60.735C600.69,99.191,573.491,72,539.955,72
			c-33.535,0-60.735,27.191-60.735,60.718C479.22,166.271,506.42,193.453,539.955,193.453z"/>
		<path fill="#DC1E46" d="M744.549,358.759c33.534,0,60.735-27.191,60.735-60.735c0-33.545-27.201-60.736-60.735-60.736
			c-33.554,0-60.736,27.191-60.736,60.736C683.812,331.567,710.995,358.759,744.549,358.759z"/>
		<path fill="#DC1E46" d="M335.363,358.759c33.535,0,60.735-27.191,60.735-60.735c0-33.545-27.2-60.736-60.735-60.736
			s-60.735,27.191-60.735,60.736C274.628,331.567,301.828,358.759,335.363,358.759z"/>
		<polygon fill="#DC1E46" points="598.479,259.939 598.515,259.922 539.974,201.39 539.955,201.417 539.92,201.39 481.396,259.922 
			481.415,259.939 194.896,546.469 253.427,605.009 332.886,525.551 332.886,768.085 415.653,768.085 415.653,442.783 
			498.562,359.856 498.562,768.757 581.331,768.757 581.331,359.856 664.258,442.783 664.258,768.085 747.025,768.085 
			747.025,525.551 826.483,605.009 885.008,546.469 		"/>
	</g>
</g>
</svg>
